<svg viewBox="0 0 817.28 771.85"><path fill="#ffffff" stroke="#ffffff" stroke-miterlimit="10" d="M597.81 770.38c130.16-68.2 219-204.6 219-361.74C816.81 183.23 634.08.5 408.67.5S.5 183.23.5 408.64a412.74 412.74 0 0 0 2.64 46.64l145-213.9L251.05 63.19l141 105.53 266.42 11.25 125.42 129.78-51.9 280.23z"/><g><path fill="#ffffff" stroke="#ffffff" stroke-miterlimit="10" d="M14.4 486.67l177.82-133.95 74.85-223.27 99.45 129.85-86.67-57.28-69.74 210.67-41.21-5.28-154.5 79.26zM336.39 350.36l-89.9 121.53 162.15 180.44-219.07-176.27 146.82-125.7z"/><path fill="#ffffff" stroke="#ffffff" stroke-miterlimit="10" d="M351.37 245.11l147.07-29.06 91.01 74.74-97.54-53.53-140.54 7.85z"/><path fill="#ffffff" d="M519.3 315.98l114.46-52.04 11.64 10.68-99.51 40.17-26.59 1.19zM703.34 520.88l-180.68 77.14 184.35-96.68-3.67 19.54z"/><path fill="#ffffff" stroke="#ffffff" stroke-miterlimit="10" stroke-width="9" d="M513.07 315.58l-74.96 28.33 13.78-39.85 61.18 11.52z"/><path fill="#ffffff" d="M673.08 259.96l15.63 14.23-26.27 8.87-13.08-15 23.72-8.14m2.11-10.24l-41.42 14.26 25.87 29.57 46.44-15.69-30.88-28.1z"/><path fill="none" stroke="#ffffff" stroke-miterlimit="10" stroke-width="9" d="M699.94 514.41l56.61-194.32-88.08 40.96L559 456.12l53.62 33.95 93.45-37.28 29.57-102.43-123.12 59.28"/><path fill="#ffffff" stroke="#ffffff" stroke-miterlimit="10" stroke-width="10" d="M703.78 453.13l16.69-6.52"/><path fill="#ffffff" d="M620.51 467.17l4.18 11.86-8.35 1.95 4.17-13.81z"/><path fill="#ffffff" d="M620.15 451.1l-11.11 36.71 22.22-5.17-11.11-31.54zM689.92 442.36l7.62 7.28-7.62 2.07v-9.35z"/><path fill="#ffffff" d="M684.92 430.67v27.58l22.48-6.11-22.48-21.47zM696.45 269.07l67.18 42.76-11.27 6.84-56.2-39.35.29-10.25z"/><path fill="#ffffff" stroke="#ffffff" stroke-miterlimit="10" d="M204.78 612.41l167.02 59.78-129.52.5-37.5-60.28z"/><path fill="#ffffff" d="M309.52 725.65l91.45-12.39-40.51 25.5-50.94-13.11z"/><path fill="#ffffff" d="M398.75 714.07l-38.37 24.15-48.26-12.42 86.63-11.73m4.44-1.61l-96.27 13 53.62 13.8 42.65-26.82zM438.63 684.13l80.62-81.79-57.89 84.73-18.77 53.03-3.96-55.97z"/><path fill="#ffffff" d="M515.69 606.66l-54.7 80.07-.08.11v.12l-18 50.71-3.78-53.36 76.55-77.65m7.12-8.65l-84.7 85.92 4.15 58.6 19.55-55.23 61-89.29z"/></g></svg>